# xmcd
# Copyright (C) 1995-1998 Ti Kan
#
# Track frame offsets:
#       182
#       14072
#       26782
#       39522
#       49590
#       59240
#       70315
#       80517
#       93477
#       106142
#       117205
#       128155
#
# Disc length: 1873 seconds
#
# Revision: 0
# Processed by: cddbd v1.5.2PL0 Copyright (c) Steve Scherf et al.
# Submitted via: CD-Transfer v1.0
#
DISCID=a7074f0c
DTITLE=Rosy and Peter - Lasst Die Weissen Tauben Fleigen! [CD)
DYEAR=93
DGENRE=
TTITLE0=Lasst Die Weissen Tauben Fliegen
TTITLE1=Damenwahl
TTITLE2=Ein Lid Für Kim
TTITLE3=Aber Dann!
TTITLE4=Das Lieben Ist Heut' Digital
TTITLE5=Heut' Ist Ein Schöner Tag
TTITLE6=Super Ist Es Nicht
TTITLE7=Wer Die Sehnsucht Nicht Kennt
TTITLE8=Ich Danke Dir
TTITLE9=Ich Pfeiff' Dir Ein Leid
TTITLE10=Gute Menschen Bleiben Freunde
TTITLE11=Jeder Mensch Hat Seinen Traum
EXTD=
EXTT0=
EXTT1=
EXTT2=
EXTT3=
EXTT4=
EXTT5=
EXTT6=
EXTT7=
EXTT8=
EXTT9=
EXTT10=
EXTT11=
PLAYORDER=
